<svg width="44" height="45" viewBox="0 0 44 45" fill="none" xmlns="http://www.w3.org/2000/svg">
<rect width="44" height="45" fill="#1E1E1E"/>
<path d="M0 7C0 3.13401 3.13401 0 7 0H37C40.866 0 44 3.13401 44 7V38C44 41.866 40.866 45 37 45H7C3.13401 45 0 41.866 0 38V7Z" fill="#0A192F"/>
<path d="M30.556 31.264C30.6867 31.3013 30.7893 31.3667 30.864 31.46C30.9387 31.5347 30.976 31.6373 30.976 31.768V33H28.064C27.5787 33 27.224 32.804 27 32.412L21.792 25.244C21.6613 25.0573 21.4933 24.8987 21.288 24.768C21.12 24.656 20.84 24.6 20.448 24.6H18.656V30.928L20.224 31.264C20.3547 31.3013 20.4573 31.3667 20.532 31.46C20.6253 31.5347 20.672 31.6373 20.672 31.768V32.972H13.924V31.768C13.924 31.6373 13.9613 31.5347 14.036 31.46C14.1107 31.3667 14.2133 31.3013 14.344 31.264L15.968 30.928V14.968L14.344 14.632C14.2133 14.5947 14.1107 14.5387 14.036 14.464C13.9613 14.3707 13.924 14.2587 13.924 14.128V12.896H21.344C22.5947 12.896 23.696 13.0267 24.648 13.288C25.5813 13.5493 26.3467 13.9227 26.944 14.408C27.56 14.912 28.008 15.5 28.288 16.172C28.568 16.844 28.708 17.6187 28.708 18.496C28.708 19.1867 28.596 19.84 28.372 20.456C28.148 21.0533 27.8213 21.6133 27.392 22.136C26.9627 22.6587 26.4493 23.0787 25.852 23.396C25.1053 23.8067 24.4147 24.0773 23.78 24.208C24.116 24.4133 24.4147 24.6933 24.676 25.048L29.016 30.984C29.912 31.1333 30.4347 31.2267 30.584 31.264H30.556ZM21.176 22.64C21.9973 22.64 22.6973 22.5467 23.276 22.36C23.836 22.1733 24.34 21.8933 24.788 21.52C25.1987 21.1653 25.5067 20.7547 25.712 20.288C25.9173 19.8213 26.02 19.28 26.02 18.664C26.02 17.488 25.628 16.592 24.844 15.976C24.0787 15.3787 22.912 15.08 21.344 15.08H18.628V22.64H21.176Z" fill="#D9D9D9"/>
</svg>
